<svg width="663" height="340" viewBox="0 0 663 340" fill="none" xmlns="http://www.w3.org/2000/svg">
<g clip-path="">
<g filter="">
<path d="M591.685 339.999C612.368 340.553 632.866 337.783 652.811 332.058C659.828 329.842 662.414 327.995 661.86 322.27V264.833C661.86 259.108 659.644 256.338 654.473 256.338H653.734C633.42 258.739 613.107 260.216 592.608 260.401C568.97 260.401 547.918 249.135 547.918 192.807V147.006C547.918 90.3088 568.97 79.5972 592.608 79.5972C613.107 79.7819 633.42 81.0747 653.734 83.4755H655.027C659.828 83.4755 662.414 80.89 662.414 74.9801V17.7287C662.414 11.4495 659.828 10.1567 652.811 7.9405C633.051 2.21535 612.368 -0.554888 591.685 -0.000841419C511.538 -0.000841419 457.429 44.6922 457.429 147.191V192.992C457.429 295.306 511.538 339.999 591.685 339.999Z" fill="white" fill-opacity="0.1"/>
<path d="M591.698 339.499H591.685C551.702 339.499 518.283 328.353 494.859 304.513C471.433 280.673 457.929 244.064 457.929 192.992V147.191C457.929 96.0259 471.433 59.3717 494.859 35.5083C518.283 11.6458 551.702 0.499159 591.685 0.499338L591.698 0.498979C612.326 -0.0535866 632.956 2.70893 652.666 8.41909C656.196 9.53403 658.481 10.3838 659.908 11.6809C661.283 12.9318 661.914 14.658 661.914 17.7287V74.9801C661.914 77.8736 661.279 79.8538 660.149 81.1096C659.029 82.3547 657.34 82.9755 655.027 82.9755H653.764C633.442 80.5748 613.119 79.282 592.613 79.0972H592.608C580.717 79.0972 569.369 81.7933 561.016 91.7182C552.685 101.618 547.418 118.615 547.418 147.006V192.807C547.418 221.015 552.686 238.056 561.015 248.047C569.365 258.064 580.711 260.901 592.608 260.901L592.613 260.901C613.122 260.716 633.445 259.239 653.764 256.838H654.473C656.971 256.838 658.652 257.505 659.725 258.763C660.812 260.039 661.36 262.02 661.36 264.833V322.27V322.294L661.362 322.318C661.631 325.095 661.131 326.816 659.821 328.126C658.464 329.483 656.179 330.47 652.666 331.579C632.77 337.29 612.325 340.052 591.698 339.499Z" stroke="white" stroke-opacity="0.2"/>
</g>
<g filter="">
<path d="M234.532 332.981C214.957 336.12 160.11 339.998 141.273 339.998C57.0633 339.998 0 318.391 0 209.982V12.5569C0 11.4488 0.184671 10.3407 0.738683 9.2326C1.10802 8.12451 1.84671 7.2011 2.58539 6.46237C3.32407 5.72364 4.4321 4.98491 5.35545 4.61555C6.46348 4.24618 7.5715 4.0615 8.67952 4.0615H79.7777C80.8858 4.0615 81.9938 4.24618 83.1018 4.61555C84.2098 4.98491 85.1332 5.72364 85.8719 6.46237C86.6106 7.2011 87.3492 8.12451 87.7186 9.2326C88.0879 10.3407 88.4573 11.4488 88.4573 12.5569V209.982C88.4573 250.243 101.569 263.355 132.594 263.355C146.629 263.355 160.664 262.432 174.514 260.585V12.5569C174.514 11.4488 174.698 10.3407 175.253 9.2326C175.622 8.12451 176.361 7.2011 177.099 6.46237C177.838 5.72364 178.946 4.98491 179.869 4.61555C180.977 4.24618 182.085 4.0615 183.193 4.0615H253.922C256.138 3.87682 258.539 4.80023 260.201 6.27769C261.863 7.93983 262.971 10.156 263.156 12.3722V298.26C262.971 323.377 255.584 329.841 234.532 332.981Z" fill="white" fill-opacity="0.1"/>
<path d="M234.458 332.486L234.453 332.487C214.908 335.622 160.087 339.498 141.273 339.498C99.1851 339.498 64.0138 334.092 39.3615 315.246C14.7418 296.425 0.5 264.104 0.5 209.982V12.5569C0.5 11.5073 0.674242 10.4796 1.1859 9.4562L1.20179 9.42442L1.21303 9.39071C1.54695 8.38888 2.22414 7.53077 2.93895 6.81591C3.6286 6.12623 4.67285 5.43005 5.5277 5.08519C6.58276 4.73504 7.63276 4.5615 8.67952 4.5615H79.7777C80.8292 4.5615 81.8839 4.73659 82.9437 5.08989C83.9455 5.42383 84.8035 6.10105 85.5183 6.81591C86.2331 7.53077 86.9103 8.38888 87.2442 9.39071C87.6192 10.5156 87.9573 11.5446 87.9573 12.5569V209.982C87.9573 230.141 91.2342 243.64 98.5123 252.093C105.809 260.567 117.025 263.855 132.594 263.855C146.65 263.855 160.707 262.931 174.58 261.081L175.014 261.023V260.585V12.5569C175.014 11.5073 175.188 10.4796 175.7 9.4562L175.716 9.42442L175.727 9.39071C176.061 8.38888 176.738 7.53077 177.453 6.81591C178.142 6.12625 179.187 5.43008 180.041 5.08521C181.097 4.73506 182.147 4.5615 183.193 4.5615H253.922H253.943L253.964 4.55977C256.021 4.38834 258.284 5.24821 259.858 6.64149C261.436 8.22414 262.477 10.3201 262.656 12.3932V298.257C262.564 310.792 260.669 318.528 256.293 323.533C251.918 328.536 244.969 330.918 234.458 332.486Z" stroke="white" stroke-opacity="0.2"/>
</g>
<g filter="">
<path d="M399.812 336.12H328.345C326.128 336.12 323.912 335.012 322.25 333.35C320.588 331.688 319.85 329.472 319.85 327.071V12.5569C319.85 11.4488 320.034 10.3407 320.588 9.23263C320.958 8.12453 321.696 7.20112 322.435 6.46239C323.174 5.72366 324.097 4.98493 325.205 4.61557C326.313 4.24621 327.421 4.06152 328.529 4.06152H399.997C401.105 4.06152 402.213 4.24621 403.321 4.61557C404.429 4.98493 405.352 5.53898 406.091 6.46239C406.83 7.20112 407.568 8.12453 407.938 9.23263C408.307 10.3407 408.676 11.4488 408.676 12.5569V327.071C408.676 328.179 408.492 329.472 408.122 330.58C407.753 331.688 407.014 332.611 406.276 333.535C405.537 334.458 404.429 335.012 403.505 335.566C402.213 335.751 400.92 336.12 399.812 336.12Z" fill="white" fill-opacity="0.1"/>
<path d="M321.036 9.45622L321.051 9.42444L321.063 9.39073C321.397 8.3889 322.074 7.53079 322.789 6.81593C323.503 6.10108 324.362 5.42385 325.363 5.08991C326.423 4.73662 327.478 4.56152 328.529 4.56152H399.997C401.048 4.56152 402.103 4.73662 403.163 5.08991C404.202 5.43633 405.035 5.94326 405.7 6.77473L405.718 6.79635L405.737 6.81593C406.452 7.53079 407.129 8.3889 407.463 9.39073C407.838 10.5156 408.176 11.5446 408.176 12.5569V327.071C408.176 328.131 407.999 329.37 407.648 330.422C407.312 331.431 406.634 332.286 405.885 333.222C405.325 333.923 404.532 334.385 403.714 334.863C403.588 334.936 403.461 335.01 403.335 335.086C402.894 335.152 402.449 335.238 402.024 335.32C401.845 335.355 401.669 335.389 401.498 335.421C400.879 335.536 400.317 335.62 399.812 335.62H328.345C326.291 335.62 324.196 334.588 322.604 332.996C321.055 331.447 320.35 329.368 320.35 327.071V12.5569C320.35 11.5073 320.524 10.4796 321.036 9.45622Z" stroke="white" stroke-opacity="0.2"/>
</g>
</g>
<defs>
<filter id="filter0_b" x="433.429" y="-24.0703" width="252.984" height="388.139" filterUnits="userSpaceOnUse" color-interpolation-filters="sRGB">
<feFlood flood-opacity="0" result="BackgroundImageFix"/>
<feGaussianBlur in="BackgroundImage" stdDeviation="12"/>
<feComposite in2="SourceAlpha" operator="in" result="effect1_backgroundBlur"/>
<feBlend mode="normal" in="SourceGraphic" in2="effect1_backgroundBlur" result="shape"/>
</filter>
<filter id="filter1_b" x="-24" y="-19.9619" width="311.156" height="383.96" filterUnits="userSpaceOnUse" color-interpolation-filters="sRGB">
<feFlood flood-opacity="0" result="BackgroundImageFix"/>
<feGaussianBlur in="BackgroundImage" stdDeviation="12"/>
<feComposite in2="SourceAlpha" operator="in" result="effect1_backgroundBlur"/>
<feBlend mode="normal" in="SourceGraphic" in2="effect1_backgroundBlur" result="shape"/>
</filter>
<filter id="filter2_b" x="295.85" y="-19.9385" width="136.827" height="380.059" filterUnits="userSpaceOnUse" color-interpolation-filters="sRGB">
<feFlood flood-opacity="0" result="BackgroundImageFix"/>
<feGaussianBlur in="BackgroundImage" stdDeviation="12"/>
<feComposite in2="SourceAlpha" operator="in" result="effect1_backgroundBlur"/>
<feBlend mode="normal" in="SourceGraphic" in2="effect1_backgroundBlur" result="shape"/>
</filter>
<clipPath id="clip0">
<rect width="662.414" height="340" fill="white"/>
</clipPath>
</defs>
</svg>
